<svg class="typst-doc" viewBox="0 0 181.9190590094381 179.69961362393133" width="181.9190590094381pt" height="179.69961362393133pt" xmlns="http://www.w3.org/2000/svg" xmlns:xlink="http://www.w3.org/1999/xlink" xmlns:h5="http://www.w3.org/1999/xhtml">
    <path class="typst-shape" fill="#ffffff" fill-rule="nonzero" d="M 0 0 L 0 179.69962 L 181.91905 179.69962 L 181.91905 0 Z "/>
    <g>
        <g transform="translate(5 5)">
            <g class="typst-group">
                <g>
                    <g transform="translate(0 0)">
                        <g class="typst-group">
                            <g>
                                <g transform="translate(82.55795470156944 0)">
                                    <path class="typst-shape" fill="#ffffff" fill-rule="nonzero" stroke="#000000" stroke-width="1" stroke-linecap="butt" stroke-linejoin="miter" stroke-miterlimit="4" d="M 3.4015749 0 C 5.278509 0 6.8031497 1.5246402 6.8031497 3.4015749 C 6.8031497 3.4015749 6.8031497 3.4015749 6.8031497 3.4015749 C 6.8031497 5.278509 5.278509 6.8031497 3.4015749 6.8031497 C 3.4015749 6.8031497 3.4015749 6.8031497 3.4015749 6.8031497 C 1.5246402 6.8031497 0 5.278509 0 3.4015749 C 0 3.4015749 0 3.4015749 0 3.4015749 C 0 1.5246402 1.5246402 0 3.4015749 0 C 3.4015749 0 3.4015749 0 3.4015749 0 Z "/>
                                </g>
                                <g transform="translate(82.55795470156944 147.6841590368461)">
                                    <path class="typst-shape" fill="#ffffff" fill-rule="nonzero" stroke="#000000" stroke-width="1" stroke-linecap="butt" stroke-linejoin="miter" stroke-miterlimit="4" d="M 3.4015749 0 C 5.278509 0 6.8031497 1.5246402 6.8031497 3.4015749 C 6.8031497 3.4015749 6.8031497 3.4015749 6.8031497 3.4015749 C 6.8031497 5.278509 5.278509 6.8031497 3.4015749 6.8031497 C 3.4015749 6.8031497 3.4015749 6.8031497 3.4015749 6.8031497 C 1.5246402 6.8031497 0 5.278509 0 3.4015749 C 0 3.4015749 0 3.4015749 0 3.4015749 C 0 1.5246402 1.5246402 0 3.4015749 0 C 3.4015749 0 3.4015749 0 3.4015749 0 Z "/>
                                </g>
                                <g transform="translate(82.55795470156944 15.212304980785984)">
                                    <path class="typst-shape" fill="#ffffff" fill-rule="nonzero" stroke="#000000" stroke-width="1" stroke-linecap="butt" stroke-linejoin="miter" stroke-miterlimit="4" d="M 3.4015749 0 C 5.278509 0 6.8031497 1.5246402 6.8031497 3.4015749 C 6.8031497 3.4015749 6.8031497 3.4015749 6.8031497 3.4015749 C 6.8031497 5.278509 5.278509 6.8031497 3.4015749 6.8031497 C 3.4015749 6.8031497 3.4015749 6.8031497 3.4015749 6.8031497 C 1.5246402 6.8031497 0 5.278509 0 3.4015749 C 0 3.4015749 0 3.4015749 0 3.4015749 C 0 1.5246402 1.5246402 0 3.4015749 0 C 3.4015749 0 3.4015749 0 3.4015749 0 Z "/>
                                </g>
                                <g transform="translate(82.55795470156944 162.8964640176321)">
                                    <path class="typst-shape" fill="#ffffff" fill-rule="nonzero" stroke="#000000" stroke-width="1" stroke-linecap="butt" stroke-linejoin="miter" stroke-miterlimit="4" d="M 3.4015749 0 C 5.278509 0 6.8031497 1.5246402 6.8031497 3.4015749 C 6.8031497 3.4015749 6.8031497 3.4015749 6.8031497 3.4015749 C 6.8031497 5.278509 5.278509 6.8031497 3.4015749 6.8031497 C 3.4015749 6.8031497 3.4015749 6.8031497 3.4015749 6.8031497 C 1.5246402 6.8031497 0 5.278509 0 3.4015749 C 0 3.4015749 0 3.4015749 0 3.4015749 C 0 1.5246402 1.5246402 0 3.4015749 0 C 3.4015749 0 3.4015749 0 3.4015749 0 Z "/>
                                </g>
                                <g transform="translate(99.56582871731747 44.527192249604525)">
                                    <path class="typst-shape" fill="#ffffff" fill-rule="nonzero" stroke="#000000" stroke-width="1" stroke-linecap="butt" stroke-linejoin="miter" stroke-miterlimit="4" d="M 3.4015749 0 C 5.278509 0 6.8031497 1.5246402 6.8031497 3.4015749 C 6.8031497 3.4015749 6.8031497 3.4015749 6.8031497 3.4015749 C 6.8031497 5.278509 5.278509 6.8031497 3.4015749 6.8031497 C 3.4015749 6.8031497 3.4015749 6.8031497 3.4015749 6.8031497 C 1.5246402 6.8031497 0 5.278509 0 3.4015749 C 0 3.4015749 0 3.4015749 0 3.4015749 C 0 1.5246402 1.5246402 0 3.4015749 0 C 3.4015749 0 3.4015749 0 3.4015749 0 Z "/>
                                </g>
                                <g transform="translate(99.56582871731747 118.36927176802759)">
                                    <path class="typst-shape" fill="#ffffff" fill-rule="nonzero" stroke="#000000" stroke-width="1" stroke-linecap="butt" stroke-linejoin="miter" stroke-miterlimit="4" d="M 3.4015749 0 C 5.278509 0 6.8031497 1.5246402 6.8031497 3.4015749 C 6.8031497 3.4015749 6.8031497 3.4015749 6.8031497 3.4015749 C 6.8031497 5.278509 5.278509 6.8031497 3.4015749 6.8031497 C 3.4015749 6.8031497 3.4015749 6.8031497 3.4015749 6.8031497 C 1.5246402 6.8031497 0 5.278509 0 3.4015749 C 0 3.4015749 0 3.4015749 0 3.4015749 C 0 1.5246402 1.5246402 0 3.4015749 0 C 3.4015749 0 3.4015749 0 3.4015749 0 Z "/>
                                </g>
                                <g transform="translate(65.55008068582141 44.527192249604525)">
                                    <path class="typst-shape" fill="#ffffff" fill-rule="nonzero" stroke="#000000" stroke-width="1" stroke-linecap="butt" stroke-linejoin="miter" stroke-miterlimit="4" d="M 3.4015749 0 C 5.278509 0 6.8031497 1.5246402 6.8031497 3.4015749 C 6.8031497 3.4015749 6.8031497 3.4015749 6.8031497 3.4015749 C 6.8031497 5.278509 5.278509 6.8031497 3.4015749 6.8031497 C 3.4015749 6.8031497 3.4015749 6.8031497 3.4015749 6.8031497 C 1.5246402 6.8031497 0 5.278509 0 3.4015749 C 0 3.4015749 0 3.4015749 0 3.4015749 C 0 1.5246402 1.5246402 0 3.4015749 0 C 3.4015749 0 3.4015749 0 3.4015749 0 Z "/>
                                </g>
                                <g transform="translate(65.55008068582141 118.36927176802759)">
                                    <path class="typst-shape" fill="#ffffff" fill-rule="nonzero" stroke="#000000" stroke-width="1" stroke-linecap="butt" stroke-linejoin="miter" stroke-miterlimit="4" d="M 3.4015749 0 C 5.278509 0 6.8031497 1.5246402 6.8031497 3.4015749 C 6.8031497 3.4015749 6.8031497 3.4015749 6.8031497 3.4015749 C 6.8031497 5.278509 5.278509 6.8031497 3.4015749 6.8031497 C 3.4015749 6.8031497 3.4015749 6.8031497 3.4015749 6.8031497 C 1.5246402 6.8031497 0 5.278509 0 3.4015749 C 0 3.4015749 0 3.4015749 0 3.4015749 C 0 1.5246402 1.5246402 0 3.4015749 0 C 3.4015749 0 3.4015749 0 3.4015749 0 Z "/>
                                </g>
                                <g transform="translate(165.1159094031389 66.23592702803008)">
                                    <path class="typst-shape" fill="#ffffff" fill-rule="nonzero" stroke="#000000" stroke-width="1" stroke-linecap="butt" stroke-linejoin="miter" stroke-miterlimit="4" d="M 3.4015749 0 C 5.278509 0 6.8031497 1.5246402 6.8031497 3.4015749 C 6.8031497 3.4015749 6.8031497 3.4015749 6.8031497 3.4015749 C 6.8031497 5.278509 5.278509 6.8031497 3.4015749 6.8031497 C 3.4015749 6.8031497 3.4015749 6.8031497 3.4015749 6.8031497 C 1.5246402 6.8031497 0 5.278509 0 3.4015749 C 0 3.4015749 0 3.4015749 0 3.4015749 C 0 1.5246402 1.5246402 0 3.4015749 0 C 3.4015749 0 3.4015749 0 3.4015749 0 Z "/>
                                </g>
                                <g transform="translate(165.1159094031389 96.66053698960202)">
                                    <path class="typst-shape" fill="#ffffff" fill-rule="nonzero" stroke="#000000" stroke-width="1" stroke-linecap="butt" stroke-linejoin="miter" stroke-miterlimit="4" d="M 3.4015749 0 C 5.278509 0 6.8031497 1.5246402 6.8031497 3.4015749 C 6.8031497 3.4015749 6.8031497 3.4015749 6.8031497 3.4015749 C 6.8031497 5.278509 5.278509 6.8031497 3.4015749 6.8031497 C 3.4015749 6.8031497 3.4015749 6.8031497 3.4015749 6.8031497 C 1.5246402 6.8031497 0 5.278509 0 3.4015749 C 0 3.4015749 0 3.4015749 0 3.4015749 C 0 1.5246402 1.5246402 0 3.4015749 0 C 3.4015749 0 3.4015749 0 3.4015749 0 Z "/>
                                </g>
                                <g transform="translate(0 66.23592702803008)">
                                    <path class="typst-shape" fill="#ffffff" fill-rule="nonzero" stroke="#000000" stroke-width="1" stroke-linecap="butt" stroke-linejoin="miter" stroke-miterlimit="4" d="M 3.4015749 0 C 5.278509 0 6.8031497 1.5246402 6.8031497 3.4015749 C 6.8031497 3.4015749 6.8031497 3.4015749 6.8031497 3.4015749 C 6.8031497 5.278509 5.278509 6.8031497 3.4015749 6.8031497 C 3.4015749 6.8031497 3.4015749 6.8031497 3.4015749 6.8031497 C 1.5246402 6.8031497 0 5.278509 0 3.4015749 C 0 3.4015749 0 3.4015749 0 3.4015749 C 0 1.5246402 1.5246402 0 3.4015749 0 C 3.4015749 0 3.4015749 0 3.4015749 0 Z "/>
                                </g>
                                <g transform="translate(0 96.66053698960202)">
                                    <path class="typst-shape" fill="#ffffff" fill-rule="nonzero" stroke="#000000" stroke-width="1" stroke-linecap="butt" stroke-linejoin="miter" stroke-miterlimit="4" d="M 3.4015749 0 C 5.278509 0 6.8031497 1.5246402 6.8031497 3.4015749 C 6.8031497 3.4015749 6.8031497 3.4015749 6.8031497 3.4015749 C 6.8031497 5.278509 5.278509 6.8031497 3.4015749 6.8031497 C 3.4015749 6.8031497 3.4015749 6.8031497 3.4015749 6.8031497 C 1.5246402 6.8031497 0 5.278509 0 3.4015749 C 0 3.4015749 0 3.4015749 0 3.4015749 C 0 1.5246402 1.5246402 0 3.4015749 0 C 3.4015749 0 3.4015749 0 3.4015749 0 Z "/>
                                </g>
                                <g transform="translate(99.56582871731747 4.700860762677535)">
                                    <path class="typst-shape" fill="#ffffff" fill-rule="nonzero" stroke="#000000" stroke-width="1" stroke-linecap="butt" stroke-linejoin="miter" stroke-miterlimit="4" d="M 3.4015749 0 C 5.278509 0 6.8031497 1.5246402 6.8031497 3.4015749 C 6.8031497 3.4015749 6.8031497 3.4015749 6.8031497 3.4015749 C 6.8031497 5.278509 5.278509 6.8031497 3.4015749 6.8031497 C 3.4015749 6.8031497 3.4015749 6.8031497 3.4015749 6.8031497 C 1.5246402 6.8031497 0 5.278509 0 3.4015749 C 0 3.4015749 0 3.4015749 0 3.4015749 C 0 1.5246402 1.5246402 0 3.4015749 0 C 3.4015749 0 3.4015749 0 3.4015749 0 Z "/>
                                </g>
                                <g transform="translate(99.56582871731747 103.15696678724159)">
                                    <path class="typst-shape" fill="#ffffff" fill-rule="nonzero" stroke="#000000" stroke-width="1" stroke-linecap="butt" stroke-linejoin="miter" stroke-miterlimit="4" d="M 3.4015749 0 C 5.278509 0 6.8031497 1.5246402 6.8031497 3.4015749 C 6.8031497 3.4015749 6.8031497 3.4015749 6.8031497 3.4015749 C 6.8031497 5.278509 5.278509 6.8031497 3.4015749 6.8031497 C 3.4015749 6.8031497 3.4015749 6.8031497 3.4015749 6.8031497 C 1.5246402 6.8031497 0 5.278509 0 3.4015749 C 0 3.4015749 0 3.4015749 0 3.4015749 C 0 1.5246402 1.5246402 0 3.4015749 0 C 3.4015749 0 3.4015749 0 3.4015749 0 Z "/>
                                </g>
                                <g transform="translate(99.56582871731747 59.73949723039049)">
                                    <path class="typst-shape" fill="#ffffff" fill-rule="nonzero" stroke="#000000" stroke-width="1" stroke-linecap="butt" stroke-linejoin="miter" stroke-miterlimit="4" d="M 3.4015749 0 C 5.278509 0 6.8031497 1.5246402 6.8031497 3.4015749 C 6.8031497 3.4015749 6.8031497 3.4015749 6.8031497 3.4015749 C 6.8031497 5.278509 5.278509 6.8031497 3.4015749 6.8031497 C 3.4015749 6.8031497 3.4015749 6.8031497 3.4015749 6.8031497 C 1.5246402 6.8031497 0 5.278509 0 3.4015749 C 0 3.4015749 0 3.4015749 0 3.4015749 C 0 1.5246402 1.5246402 0 3.4015749 0 C 3.4015749 0 3.4015749 0 3.4015749 0 Z "/>
                                </g>
                                <g transform="translate(99.56582871731747 158.19560325495456)">
                                    <path class="typst-shape" fill="#ffffff" fill-rule="nonzero" stroke="#000000" stroke-width="1" stroke-linecap="butt" stroke-linejoin="miter" stroke-miterlimit="4" d="M 3.4015749 0 C 5.278509 0 6.8031497 1.5246402 6.8031497 3.4015749 C 6.8031497 3.4015749 6.8031497 3.4015749 6.8031497 3.4015749 C 6.8031497 5.278509 5.278509 6.8031497 3.4015749 6.8031497 C 3.4015749 6.8031497 3.4015749 6.8031497 3.4015749 6.8031497 C 1.5246402 6.8031497 0 5.278509 0 3.4015749 C 0 3.4015749 0 3.4015749 0 3.4015749 C 0 1.5246402 1.5246402 0 3.4015749 0 C 3.4015749 0 3.4015749 0 3.4015749 0 Z "/>
                                </g>
                                <g transform="translate(65.55008068582141 4.700860762677535)">
                                    <path class="typst-shape" fill="#ffffff" fill-rule="nonzero" stroke="#000000" stroke-width="1" stroke-linecap="butt" stroke-linejoin="miter" stroke-miterlimit="4" d="M 3.4015749 0 C 5.278509 0 6.8031497 1.5246402 6.8031497 3.4015749 C 6.8031497 3.4015749 6.8031497 3.4015749 6.8031497 3.4015749 C 6.8031497 5.278509 5.278509 6.8031497 3.4015749 6.8031497 C 3.4015749 6.8031497 3.4015749 6.8031497 3.4015749 6.8031497 C 1.5246402 6.8031497 0 5.278509 0 3.4015749 C 0 3.4015749 0 3.4015749 0 3.4015749 C 0 1.5246402 1.5246402 0 3.4015749 0 C 3.4015749 0 3.4015749 0 3.4015749 0 Z "/>
                                </g>
                                <g transform="translate(65.55008068582141 103.15696678724159)">
                                    <path class="typst-shape" fill="#ffffff" fill-rule="nonzero" stroke="#000000" stroke-width="1" stroke-linecap="butt" stroke-linejoin="miter" stroke-miterlimit="4" d="M 3.4015749 0 C 5.278509 0 6.8031497 1.5246402 6.8031497 3.4015749 C 6.8031497 3.4015749 6.8031497 3.4015749 6.8031497 3.4015749 C 6.8031497 5.278509 5.278509 6.8031497 3.4015749 6.8031497 C 3.4015749 6.8031497 3.4015749 6.8031497 3.4015749 6.8031497 C 1.5246402 6.8031497 0 5.278509 0 3.4015749 C 0 3.4015749 0 3.4015749 0 3.4015749 C 0 1.5246402 1.5246402 0 3.4015749 0 C 3.4015749 0 3.4015749 0 3.4015749 0 Z "/>
                                </g>
                                <g transform="translate(65.55008068582141 59.73949723039049)">
                                    <path class="typst-shape" fill="#ffffff" fill-rule="nonzero" stroke="#000000" stroke-width="1" stroke-linecap="butt" stroke-linejoin="miter" stroke-miterlimit="4" d="M 3.4015749 0 C 5.278509 0 6.8031497 1.5246402 6.8031497 3.4015749 C 6.8031497 3.4015749 6.8031497 3.4015749 6.8031497 3.4015749 C 6.8031497 5.278509 5.278509 6.8031497 3.4015749 6.8031497 C 3.4015749 6.8031497 3.4015749 6.8031497 3.4015749 6.8031497 C 1.5246402 6.8031497 0 5.278509 0 3.4015749 C 0 3.4015749 0 3.4015749 0 3.4015749 C 0 1.5246402 1.5246402 0 3.4015749 0 C 3.4015749 0 3.4015749 0 3.4015749 0 Z "/>
                                </g>
                                <g transform="translate(65.55008068582141 158.19560325495456)">
                                    <path class="typst-shape" fill="#ffffff" fill-rule="nonzero" stroke="#000000" stroke-width="1" stroke-linecap="butt" stroke-linejoin="miter" stroke-miterlimit="4" d="M 3.4015749 0 C 5.278509 0 6.8031497 1.5246402 6.8031497 3.4015749 C 6.8031497 3.4015749 6.8031497 3.4015749 6.8031497 3.4015749 C 6.8031497 5.278509 5.278509 6.8031497 3.4015749 6.8031497 C 3.4015749 6.8031497 3.4015749 6.8031497 3.4015749 6.8031497 C 1.5246402 6.8031497 0 5.278509 0 3.4015749 C 0 3.4015749 0 3.4015749 0 3.4015749 C 0 1.5246402 1.5246402 0 3.4015749 0 C 3.4015749 0 3.4015749 0 3.4015749 0 Z "/>
                                </g>
                                <g transform="translate(144.09302096692198 41.62190052188906)">
                                    <path class="typst-shape" fill="#ffffff" fill-rule="nonzero" stroke="#000000" stroke-width="1" stroke-linecap="butt" stroke-linejoin="miter" stroke-miterlimit="4" d="M 3.4015749 0 C 5.278509 0 6.8031497 1.5246402 6.8031497 3.4015749 C 6.8031497 3.4015749 6.8031497 3.4015749 6.8031497 3.4015749 C 6.8031497 5.278509 5.278509 6.8031497 3.4015749 6.8031497 C 3.4015749 6.8031497 3.4015749 6.8031497 3.4015749 6.8031497 C 1.5246402 6.8031497 0 5.278509 0 3.4015749 C 0 3.4015749 0 3.4015749 0 3.4015749 C 0 1.5246402 1.5246402 0 3.4015749 0 C 3.4015749 0 3.4015749 0 3.4015749 0 Z "/>
                                </g>
                                <g transform="translate(144.09302096692198 72.046510483461)">
                                    <path class="typst-shape" fill="#ffffff" fill-rule="nonzero" stroke="#000000" stroke-width="1" stroke-linecap="butt" stroke-linejoin="miter" stroke-miterlimit="4" d="M 3.4015749 0 C 5.278509 0 6.8031497 1.5246402 6.8031497 3.4015749 C 6.8031497 3.4015749 6.8031497 3.4015749 6.8031497 3.4015749 C 6.8031497 5.278509 5.278509 6.8031497 3.4015749 6.8031497 C 3.4015749 6.8031497 3.4015749 6.8031497 3.4015749 6.8031497 C 1.5246402 6.8031497 0 5.278509 0 3.4015749 C 0 3.4015749 0 3.4015749 0 3.4015749 C 0 1.5246402 1.5246402 0 3.4015749 0 C 3.4015749 0 3.4015749 0 3.4015749 0 Z "/>
                                </g>
                                <g transform="translate(144.09302096692198 90.84995353417109)">
                                    <path class="typst-shape" fill="#ffffff" fill-rule="nonzero" stroke="#000000" stroke-width="1" stroke-linecap="butt" stroke-linejoin="miter" stroke-miterlimit="4" d="M 3.4015749 0 C 5.278509 0 6.8031497 1.5246402 6.8031497 3.4015749 C 6.8031497 3.4015749 6.8031497 3.4015749 6.8031497 3.4015749 C 6.8031497 5.278509 5.278509 6.8031497 3.4015749 6.8031497 C 3.4015749 6.8031497 3.4015749 6.8031497 3.4015749 6.8031497 C 1.5246402 6.8031497 0 5.278509 0 3.4015749 C 0 3.4015749 0 3.4015749 0 3.4015749 C 0 1.5246402 1.5246402 0 3.4015749 0 C 3.4015749 0 3.4015749 0 3.4015749 0 Z "/>
                                </g>
                                <g transform="translate(144.09302096692198 121.27456349574304)">
                                    <path class="typst-shape" fill="#ffffff" fill-rule="nonzero" stroke="#000000" stroke-width="1" stroke-linecap="butt" stroke-linejoin="miter" stroke-miterlimit="4" d="M 3.4015749 0 C 5.278509 0 6.8031497 1.5246402 6.8031497 3.4015749 C 6.8031497 3.4015749 6.8031497 3.4015749 6.8031497 3.4015749 C 6.8031497 5.278509 5.278509 6.8031497 3.4015749 6.8031497 C 3.4015749 6.8031497 3.4015749 6.8031497 3.4015749 6.8031497 C 1.5246402 6.8031497 0 5.278509 0 3.4015749 C 0 3.4015749 0 3.4015749 0 3.4015749 C 0 1.5246402 1.5246402 0 3.4015749 0 C 3.4015749 0 3.4015749 0 3.4015749 0 Z "/>
                                </g>
                                <g transform="translate(21.022888436216896 41.62190052188906)">
                                    <path class="typst-shape" fill="#ffffff" fill-rule="nonzero" stroke="#000000" stroke-width="1" stroke-linecap="butt" stroke-linejoin="miter" stroke-miterlimit="4" d="M 3.4015749 0 C 5.278509 0 6.8031497 1.5246402 6.8031497 3.4015749 C 6.8031497 3.4015749 6.8031497 3.4015749 6.8031497 3.4015749 C 6.8031497 5.278509 5.278509 6.8031497 3.4015749 6.8031497 C 3.4015749 6.8031497 3.4015749 6.8031497 3.4015749 6.8031497 C 1.5246402 6.8031497 0 5.278509 0 3.4015749 C 0 3.4015749 0 3.4015749 0 3.4015749 C 0 1.5246402 1.5246402 0 3.4015749 0 C 3.4015749 0 3.4015749 0 3.4015749 0 Z "/>
                                </g>
                                <g transform="translate(21.022888436216896 72.046510483461)">
                                    <path class="typst-shape" fill="#ffffff" fill-rule="nonzero" stroke="#000000" stroke-width="1" stroke-linecap="butt" stroke-linejoin="miter" stroke-miterlimit="4" d="M 3.4015749 0 C 5.278509 0 6.8031497 1.5246402 6.8031497 3.4015749 C 6.8031497 3.4015749 6.8031497 3.4015749 6.8031497 3.4015749 C 6.8031497 5.278509 5.278509 6.8031497 3.4015749 6.8031497 C 3.4015749 6.8031497 3.4015749 6.8031497 3.4015749 6.8031497 C 1.5246402 6.8031497 0 5.278509 0 3.4015749 C 0 3.4015749 0 3.4015749 0 3.4015749 C 0 1.5246402 1.5246402 0 3.4015749 0 C 3.4015749 0 3.4015749 0 3.4015749 0 Z "/>
                                </g>
                                <g transform="translate(21.022888436216896 90.84995353417109)">
                                    <path class="typst-shape" fill="#ffffff" fill-rule="nonzero" stroke="#000000" stroke-width="1" stroke-linecap="butt" stroke-linejoin="miter" stroke-miterlimit="4" d="M 3.4015749 0 C 5.278509 0 6.8031497 1.5246402 6.8031497 3.4015749 C 6.8031497 3.4015749 6.8031497 3.4015749 6.8031497 3.4015749 C 6.8031497 5.278509 5.278509 6.8031497 3.4015749 6.8031497 C 3.4015749 6.8031497 3.4015749 6.8031497 3.4015749 6.8031497 C 1.5246402 6.8031497 0 5.278509 0 3.4015749 C 0 3.4015749 0 3.4015749 0 3.4015749 C 0 1.5246402 1.5246402 0 3.4015749 0 C 3.4015749 0 3.4015749 0 3.4015749 0 Z "/>
                                </g>
                                <g transform="translate(21.022888436216896 121.27456349574304)">
                                    <path class="typst-shape" fill="#ffffff" fill-rule="nonzero" stroke="#000000" stroke-width="1" stroke-linecap="butt" stroke-linejoin="miter" stroke-miterlimit="4" d="M 3.4015749 0 C 5.278509 0 6.8031497 1.5246402 6.8031497 3.4015749 C 6.8031497 3.4015749 6.8031497 3.4015749 6.8031497 3.4015749 C 6.8031497 5.278509 5.278509 6.8031497 3.4015749 6.8031497 C 3.4015749 6.8031497 3.4015749 6.8031497 3.4015749 6.8031497 C 1.5246402 6.8031497 0 5.278509 0 3.4015749 C 0 3.4015749 0 3.4015749 0 3.4015749 C 0 1.5246402 1.5246402 0 3.4015749 0 C 3.4015749 0 3.4015749 0 3.4015749 0 Z "/>
                                </g>
                                <g transform="translate(137.59659116928242 18.8034430507101)">
                                    <path class="typst-shape" fill="#ffffff" fill-rule="nonzero" stroke="#000000" stroke-width="1" stroke-linecap="butt" stroke-linejoin="miter" stroke-miterlimit="4" d="M 3.4015749 0 C 5.278509 0 6.8031497 1.5246402 6.8031497 3.4015749 C 6.8031497 3.4015749 6.8031497 3.4015749 6.8031497 3.4015749 C 6.8031497 5.278509 5.278509 6.8031497 3.4015749 6.8031497 C 3.4015749 6.8031497 3.4015749 6.8031497 3.4015749 6.8031497 C 1.5246402 6.8031497 0 5.278509 0 3.4015749 C 0 3.4015749 0 3.4015749 0 3.4015749 C 0 1.5246402 1.5246402 0 3.4015749 0 C 3.4015749 0 3.4015749 0 3.4015749 0 Z "/>
                                </g>
                                <g transform="translate(137.59659116928242 128.88071598613604)">
                                    <path class="typst-shape" fill="#ffffff" fill-rule="nonzero" stroke="#000000" stroke-width="1" stroke-linecap="butt" stroke-linejoin="miter" stroke-miterlimit="4" d="M 3.4015749 0 C 5.278509 0 6.8031497 1.5246402 6.8031497 3.4015749 C 6.8031497 3.4015749 6.8031497 3.4015749 6.8031497 3.4015749 C 6.8031497 5.278509 5.278509 6.8031497 3.4015749 6.8031497 C 3.4015749 6.8031497 3.4015749 6.8031497 3.4015749 6.8031497 C 1.5246402 6.8031497 0 5.278509 0 3.4015749 C 0 3.4015749 0 3.4015749 0 3.4015749 C 0 1.5246402 1.5246402 0 3.4015749 0 C 3.4015749 0 3.4015749 0 3.4015749 0 Z "/>
                                </g>
                                <g transform="translate(137.59659116928242 34.015748031496074)">
                                    <path class="typst-shape" fill="#ffffff" fill-rule="nonzero" stroke="#000000" stroke-width="1" stroke-linecap="butt" stroke-linejoin="miter" stroke-miterlimit="4" d="M 3.4015749 0 C 5.278509 0 6.8031497 1.5246402 6.8031497 3.4015749 C 6.8031497 3.4015749 6.8031497 3.4015749 6.8031497 3.4015749 C 6.8031497 5.278509 5.278509 6.8031497 3.4015749 6.8031497 C 3.4015749 6.8031497 3.4015749 6.8031497 3.4015749 6.8031497 C 1.5246402 6.8031497 0 5.278509 0 3.4015749 C 0 3.4015749 0 3.4015749 0 3.4015749 C 0 1.5246402 1.5246402 0 3.4015749 0 C 3.4015749 0 3.4015749 0 3.4015749 0 Z "/>
                                </g>
                                <g transform="translate(137.59659116928242 144.09302096692198)">
                                    <path class="typst-shape" fill="#ffffff" fill-rule="nonzero" stroke="#000000" stroke-width="1" stroke-linecap="butt" stroke-linejoin="miter" stroke-miterlimit="4" d="M 3.4015749 0 C 5.278509 0 6.8031497 1.5246402 6.8031497 3.4015749 C 6.8031497 3.4015749 6.8031497 3.4015749 6.8031497 3.4015749 C 6.8031497 5.278509 5.278509 6.8031497 3.4015749 6.8031497 C 3.4015749 6.8031497 3.4015749 6.8031497 3.4015749 6.8031497 C 1.5246402 6.8031497 0 5.278509 0 3.4015749 C 0 3.4015749 0 3.4015749 0 3.4015749 C 0 1.5246402 1.5246402 0 3.4015749 0 C 3.4015749 0 3.4015749 0 3.4015749 0 Z "/>
                                </g>
                                <g transform="translate(27.51931823385648 18.8034430507101)">
                                    <path class="typst-shape" fill="#ffffff" fill-rule="nonzero" stroke="#000000" stroke-width="1" stroke-linecap="butt" stroke-linejoin="miter" stroke-miterlimit="4" d="M 3.4015749 0 C 5.278509 0 6.8031497 1.5246402 6.8031497 3.4015749 C 6.8031497 3.4015749 6.8031497 3.4015749 6.8031497 3.4015749 C 6.8031497 5.278509 5.278509 6.8031497 3.4015749 6.8031497 C 3.4015749 6.8031497 3.4015749 6.8031497 3.4015749 6.8031497 C 1.5246402 6.8031497 0 5.278509 0 3.4015749 C 0 3.4015749 0 3.4015749 0 3.4015749 C 0 1.5246402 1.5246402 0 3.4015749 0 C 3.4015749 0 3.4015749 0 3.4015749 0 Z "/>
                                </g>
                                <g transform="translate(27.51931823385648 128.88071598613604)">
                                    <path class="typst-shape" fill="#ffffff" fill-rule="nonzero" stroke="#000000" stroke-width="1" stroke-linecap="butt" stroke-linejoin="miter" stroke-miterlimit="4" d="M 3.4015749 0 C 5.278509 0 6.8031497 1.5246402 6.8031497 3.4015749 C 6.8031497 3.4015749 6.8031497 3.4015749 6.8031497 3.4015749 C 6.8031497 5.278509 5.278509 6.8031497 3.4015749 6.8031497 C 3.4015749 6.8031497 3.4015749 6.8031497 3.4015749 6.8031497 C 1.5246402 6.8031497 0 5.278509 0 3.4015749 C 0 3.4015749 0 3.4015749 0 3.4015749 C 0 1.5246402 1.5246402 0 3.4015749 0 C 3.4015749 0 3.4015749 0 3.4015749 0 Z "/>
                                </g>
                                <g transform="translate(27.51931823385648 34.015748031496074)">
                                    <path class="typst-shape" fill="#ffffff" fill-rule="nonzero" stroke="#000000" stroke-width="1" stroke-linecap="butt" stroke-linejoin="miter" stroke-miterlimit="4" d="M 3.4015749 0 C 5.278509 0 6.8031497 1.5246402 6.8031497 3.4015749 C 6.8031497 3.4015749 6.8031497 3.4015749 6.8031497 3.4015749 C 6.8031497 5.278509 5.278509 6.8031497 3.4015749 6.8031497 C 3.4015749 6.8031497 3.4015749 6.8031497 3.4015749 6.8031497 C 1.5246402 6.8031497 0 5.278509 0 3.4015749 C 0 3.4015749 0 3.4015749 0 3.4015749 C 0 1.5246402 1.5246402 0 3.4015749 0 C 3.4015749 0 3.4015749 0 3.4015749 0 Z "/>
                                </g>
                                <g transform="translate(27.51931823385648 144.09302096692198)">
                                    <path class="typst-shape" fill="#ffffff" fill-rule="nonzero" stroke="#000000" stroke-width="1" stroke-linecap="butt" stroke-linejoin="miter" stroke-miterlimit="4" d="M 3.4015749 0 C 5.278509 0 6.8031497 1.5246402 6.8031497 3.4015749 C 6.8031497 3.4015749 6.8031497 3.4015749 6.8031497 3.4015749 C 6.8031497 5.278509 5.278509 6.8031497 3.4015749 6.8031497 C 3.4015749 6.8031497 3.4015749 6.8031497 3.4015749 6.8031497 C 1.5246402 6.8031497 0 5.278509 0 3.4015749 C 0 3.4015749 0 3.4015749 0 3.4015749 C 0 1.5246402 1.5246402 0 3.4015749 0 C 3.4015749 0 3.4015749 0 3.4015749 0 Z "/>
                                </g>
                                <g transform="translate(110.07727293542592 1.795569034962063)">
                                    <path class="typst-shape" fill="#ffffff" fill-rule="nonzero" stroke="#000000" stroke-width="1" stroke-linecap="butt" stroke-linejoin="miter" stroke-miterlimit="4" d="M 3.4015749 0 C 5.278509 0 6.8031497 1.5246402 6.8031497 3.4015749 C 6.8031497 3.4015749 6.8031497 3.4015749 6.8031497 3.4015749 C 6.8031497 5.278509 5.278509 6.8031497 3.4015749 6.8031497 C 3.4015749 6.8031497 3.4015749 6.8031497 3.4015749 6.8031497 C 1.5246402 6.8031497 0 5.278509 0 3.4015749 C 0 3.4015749 0 3.4015749 0 3.4015749 C 0 1.5246402 1.5246402 0 3.4015749 0 C 3.4015749 0 3.4015749 0 3.4015749 0 Z "/>
                                </g>
                                <g transform="translate(110.07727293542592 130.67628502109807)">
                                    <path class="typst-shape" fill="#ffffff" fill-rule="nonzero" stroke="#000000" stroke-width="1" stroke-linecap="butt" stroke-linejoin="miter" stroke-miterlimit="4" d="M 3.4015749 0 C 5.278509 0 6.8031497 1.5246402 6.8031497 3.4015749 C 6.8031497 3.4015749 6.8031497 3.4015749 6.8031497 3.4015749 C 6.8031497 5.278509 5.278509 6.8031497 3.4015749 6.8031497 C 3.4015749 6.8031497 3.4015749 6.8031497 3.4015749 6.8031497 C 1.5246402 6.8031497 0 5.278509 0 3.4015749 C 0 3.4015749 0 3.4015749 0 3.4015749 C 0 1.5246402 1.5246402 0 3.4015749 0 C 3.4015749 0 3.4015749 0 3.4015749 0 Z "/>
                                </g>
                                <g transform="translate(110.07727293542592 32.22017899653401)">
                                    <path class="typst-shape" fill="#ffffff" fill-rule="nonzero" stroke="#000000" stroke-width="1" stroke-linecap="butt" stroke-linejoin="miter" stroke-miterlimit="4" d="M 3.4015749 0 C 5.278509 0 6.8031497 1.5246402 6.8031497 3.4015749 C 6.8031497 3.4015749 6.8031497 3.4015749 6.8031497 3.4015749 C 6.8031497 5.278509 5.278509 6.8031497 3.4015749 6.8031497 C 3.4015749 6.8031497 3.4015749 6.8031497 3.4015749 6.8031497 C 1.5246402 6.8031497 0 5.278509 0 3.4015749 C 0 3.4015749 0 3.4015749 0 3.4015749 C 0 1.5246402 1.5246402 0 3.4015749 0 C 3.4015749 0 3.4015749 0 3.4015749 0 Z "/>
                                </g>
                                <g transform="translate(110.07727293542592 161.10089498267)">
                                    <path class="typst-shape" fill="#ffffff" fill-rule="nonzero" stroke="#000000" stroke-width="1" stroke-linecap="butt" stroke-linejoin="miter" stroke-miterlimit="4" d="M 3.4015749 0 C 5.278509 0 6.8031497 1.5246402 6.8031497 3.4015749 C 6.8031497 3.4015749 6.8031497 3.4015749 6.8031497 3.4015749 C 6.8031497 5.278509 5.278509 6.8031497 3.4015749 6.8031497 C 3.4015749 6.8031497 3.4015749 6.8031497 3.4015749 6.8031497 C 1.5246402 6.8031497 0 5.278509 0 3.4015749 C 0 3.4015749 0 3.4015749 0 3.4015749 C 0 1.5246402 1.5246402 0 3.4015749 0 C 3.4015749 0 3.4015749 0 3.4015749 0 Z "/>
                                </g>
                                <g transform="translate(55.03863646771296 1.795569034962063)">
                                    <path class="typst-shape" fill="#ffffff" fill-rule="nonzero" stroke="#000000" stroke-width="1" stroke-linecap="butt" stroke-linejoin="miter" stroke-miterlimit="4" d="M 3.4015749 0 C 5.278509 0 6.8031497 1.5246402 6.8031497 3.4015749 C 6.8031497 3.4015749 6.8031497 3.4015749 6.8031497 3.4015749 C 6.8031497 5.278509 5.278509 6.8031497 3.4015749 6.8031497 C 3.4015749 6.8031497 3.4015749 6.8031497 3.4015749 6.8031497 C 1.5246402 6.8031497 0 5.278509 0 3.4015749 C 0 3.4015749 0 3.4015749 0 3.4015749 C 0 1.5246402 1.5246402 0 3.4015749 0 C 3.4015749 0 3.4015749 0 3.4015749 0 Z "/>
                                </g>
                                <g transform="translate(55.03863646771296 130.67628502109807)">
                                    <path class="typst-shape" fill="#ffffff" fill-rule="nonzero" stroke="#000000" stroke-width="1" stroke-linecap="butt" stroke-linejoin="miter" stroke-miterlimit="4" d="M 3.4015749 0 C 5.278509 0 6.8031497 1.5246402 6.8031497 3.4015749 C 6.8031497 3.4015749 6.8031497 3.4015749 6.8031497 3.4015749 C 6.8031497 5.278509 5.278509 6.8031497 3.4015749 6.8031497 C 3.4015749 6.8031497 3.4015749 6.8031497 3.4015749 6.8031497 C 1.5246402 6.8031497 0 5.278509 0 3.4015749 C 0 3.4015749 0 3.4015749 0 3.4015749 C 0 1.5246402 1.5246402 0 3.4015749 0 C 3.4015749 0 3.4015749 0 3.4015749 0 Z "/>
                                </g>
                                <g transform="translate(55.03863646771296 32.22017899653401)">
                                    <path class="typst-shape" fill="#ffffff" fill-rule="nonzero" stroke="#000000" stroke-width="1" stroke-linecap="butt" stroke-linejoin="miter" stroke-miterlimit="4" d="M 3.4015749 0 C 5.278509 0 6.8031497 1.5246402 6.8031497 3.4015749 C 6.8031497 3.4015749 6.8031497 3.4015749 6.8031497 3.4015749 C 6.8031497 5.278509 5.278509 6.8031497 3.4015749 6.8031497 C 3.4015749 6.8031497 3.4015749 6.8031497 3.4015749 6.8031497 C 1.5246402 6.8031497 0 5.278509 0 3.4015749 C 0 3.4015749 0 3.4015749 0 3.4015749 C 0 1.5246402 1.5246402 0 3.4015749 0 C 3.4015749 0 3.4015749 0 3.4015749 0 Z "/>
                                </g>
                                <g transform="translate(55.03863646771296 161.10089498267)">
                                    <path class="typst-shape" fill="#ffffff" fill-rule="nonzero" stroke="#000000" stroke-width="1" stroke-linecap="butt" stroke-linejoin="miter" stroke-miterlimit="4" d="M 3.4015749 0 C 5.278509 0 6.8031497 1.5246402 6.8031497 3.4015749 C 6.8031497 3.4015749 6.8031497 3.4015749 6.8031497 3.4015749 C 6.8031497 5.278509 5.278509 6.8031497 3.4015749 6.8031497 C 3.4015749 6.8031497 3.4015749 6.8031497 3.4015749 6.8031497 C 1.5246402 6.8031497 0 5.278509 0 3.4015749 C 0 3.4015749 0 3.4015749 0 3.4015749 C 0 1.5246402 1.5246402 0 3.4015749 0 C 3.4015749 0 3.4015749 0 3.4015749 0 Z "/>
                                </g>
                                <g transform="translate(116.5737027330655 24.614026506141023)">
                                    <path class="typst-shape" fill="#ffffff" fill-rule="nonzero" stroke="#000000" stroke-width="1" stroke-linecap="butt" stroke-linejoin="miter" stroke-miterlimit="4" d="M 3.4015749 0 C 5.278509 0 6.8031497 1.5246402 6.8031497 3.4015749 C 6.8031497 3.4015749 6.8031497 3.4015749 6.8031497 3.4015749 C 6.8031497 5.278509 5.278509 6.8031497 3.4015749 6.8031497 C 3.4015749 6.8031497 3.4015749 6.8031497 3.4015749 6.8031497 C 1.5246402 6.8031497 0 5.278509 0 3.4015749 C 0 3.4015749 0 3.4015749 0 3.4015749 C 0 1.5246402 1.5246402 0 3.4015749 0 C 3.4015749 0 3.4015749 0 3.4015749 0 Z "/>
                                </g>
                                <g transform="translate(116.5737027330655 73.84207951842306)">
                                    <path class="typst-shape" fill="#ffffff" fill-rule="nonzero" stroke="#000000" stroke-width="1" stroke-linecap="butt" stroke-linejoin="miter" stroke-miterlimit="4" d="M 3.4015749 0 C 5.278509 0 6.8031497 1.5246402 6.8031497 3.4015749 C 6.8031497 3.4015749 6.8031497 3.4015749 6.8031497 3.4015749 C 6.8031497 5.278509 5.278509 6.8031497 3.4015749 6.8031497 C 3.4015749 6.8031497 3.4015749 6.8031497 3.4015749 6.8031497 C 1.5246402 6.8031497 0 5.278509 0 3.4015749 C 0 3.4015749 0 3.4015749 0 3.4015749 C 0 1.5246402 1.5246402 0 3.4015749 0 C 3.4015749 0 3.4015749 0 3.4015749 0 Z "/>
                                </g>
                                <g transform="translate(116.5737027330655 89.05438449920905)">
                                    <path class="typst-shape" fill="#ffffff" fill-rule="nonzero" stroke="#000000" stroke-width="1" stroke-linecap="butt" stroke-linejoin="miter" stroke-miterlimit="4" d="M 3.4015749 0 C 5.278509 0 6.8031497 1.5246402 6.8031497 3.4015749 C 6.8031497 3.4015749 6.8031497 3.4015749 6.8031497 3.4015749 C 6.8031497 5.278509 5.278509 6.8031497 3.4015749 6.8031497 C 3.4015749 6.8031497 3.4015749 6.8031497 3.4015749 6.8031497 C 1.5246402 6.8031497 0 5.278509 0 3.4015749 C 0 3.4015749 0 3.4015749 0 3.4015749 C 0 1.5246402 1.5246402 0 3.4015749 0 C 3.4015749 0 3.4015749 0 3.4015749 0 Z "/>
                                </g>
                                <g transform="translate(116.5737027330655 138.28243751149105)">
                                    <path class="typst-shape" fill="#ffffff" fill-rule="nonzero" stroke="#000000" stroke-width="1" stroke-linecap="butt" stroke-linejoin="miter" stroke-miterlimit="4" d="M 3.4015749 0 C 5.278509 0 6.8031497 1.5246402 6.8031497 3.4015749 C 6.8031497 3.4015749 6.8031497 3.4015749 6.8031497 3.4015749 C 6.8031497 5.278509 5.278509 6.8031497 3.4015749 6.8031497 C 3.4015749 6.8031497 3.4015749 6.8031497 3.4015749 6.8031497 C 1.5246402 6.8031497 0 5.278509 0 3.4015749 C 0 3.4015749 0 3.4015749 0 3.4015749 C 0 1.5246402 1.5246402 0 3.4015749 0 C 3.4015749 0 3.4015749 0 3.4015749 0 Z "/>
                                </g>
                                <g transform="translate(48.54220667007338 24.614026506141023)">
                                    <path class="typst-shape" fill="#ffffff" fill-rule="nonzero" stroke="#000000" stroke-width="1" stroke-linecap="butt" stroke-linejoin="miter" stroke-miterlimit="4" d="M 3.4015749 0 C 5.278509 0 6.8031497 1.5246402 6.8031497 3.4015749 C 6.8031497 3.4015749 6.8031497 3.4015749 6.8031497 3.4015749 C 6.8031497 5.278509 5.278509 6.8031497 3.4015749 6.8031497 C 3.4015749 6.8031497 3.4015749 6.8031497 3.4015749 6.8031497 C 1.5246402 6.8031497 0 5.278509 0 3.4015749 C 0 3.4015749 0 3.4015749 0 3.4015749 C 0 1.5246402 1.5246402 0 3.4015749 0 C 3.4015749 0 3.4015749 0 3.4015749 0 Z "/>
                                </g>
                                <g transform="translate(48.54220667007338 73.84207951842306)">
                                    <path class="typst-shape" fill="#ffffff" fill-rule="nonzero" stroke="#000000" stroke-width="1" stroke-linecap="butt" stroke-linejoin="miter" stroke-miterlimit="4" d="M 3.4015749 0 C 5.278509 0 6.8031497 1.5246402 6.8031497 3.4015749 C 6.8031497 3.4015749 6.8031497 3.4015749 6.8031497 3.4015749 C 6.8031497 5.278509 5.278509 6.8031497 3.4015749 6.8031497 C 3.4015749 6.8031497 3.4015749 6.8031497 3.4015749 6.8031497 C 1.5246402 6.8031497 0 5.278509 0 3.4015749 C 0 3.4015749 0 3.4015749 0 3.4015749 C 0 1.5246402 1.5246402 0 3.4015749 0 C 3.4015749 0 3.4015749 0 3.4015749 0 Z "/>
                                </g>
                                <g transform="translate(48.54220667007338 89.05438449920905)">
                                    <path class="typst-shape" fill="#ffffff" fill-rule="nonzero" stroke="#000000" stroke-width="1" stroke-linecap="butt" stroke-linejoin="miter" stroke-miterlimit="4" d="M 3.4015749 0 C 5.278509 0 6.8031497 1.5246402 6.8031497 3.4015749 C 6.8031497 3.4015749 6.8031497 3.4015749 6.8031497 3.4015749 C 6.8031497 5.278509 5.278509 6.8031497 3.4015749 6.8031497 C 3.4015749 6.8031497 3.4015749 6.8031497 3.4015749 6.8031497 C 1.5246402 6.8031497 0 5.278509 0 3.4015749 C 0 3.4015749 0 3.4015749 0 3.4015749 C 0 1.5246402 1.5246402 0 3.4015749 0 C 3.4015749 0 3.4015749 0 3.4015749 0 Z "/>
                                </g>
                                <g transform="translate(48.54220667007338 138.28243751149105)">
                                    <path class="typst-shape" fill="#ffffff" fill-rule="nonzero" stroke="#000000" stroke-width="1" stroke-linecap="butt" stroke-linejoin="miter" stroke-miterlimit="4" d="M 3.4015749 0 C 5.278509 0 6.8031497 1.5246402 6.8031497 3.4015749 C 6.8031497 3.4015749 6.8031497 3.4015749 6.8031497 3.4015749 C 6.8031497 5.278509 5.278509 6.8031497 3.4015749 6.8031497 C 3.4015749 6.8031497 3.4015749 6.8031497 3.4015749 6.8031497 C 1.5246402 6.8031497 0 5.278509 0 3.4015749 C 0 3.4015749 0 3.4015749 0 3.4015749 C 0 1.5246402 1.5246402 0 3.4015749 0 C 3.4015749 0 3.4015749 0 3.4015749 0 Z "/>
                                </g>
                                <g transform="translate(154.60446518503045 38.716608794173595)">
                                    <path class="typst-shape" fill="#ffffff" fill-rule="nonzero" stroke="#000000" stroke-width="1" stroke-linecap="butt" stroke-linejoin="miter" stroke-miterlimit="4" d="M 3.4015749 0 C 5.278509 0 6.8031497 1.5246402 6.8031497 3.4015749 C 6.8031497 3.4015749 6.8031497 3.4015749 6.8031497 3.4015749 C 6.8031497 5.278509 5.278509 6.8031497 3.4015749 6.8031497 C 3.4015749 6.8031497 3.4015749 6.8031497 3.4015749 6.8031497 C 1.5246402 6.8031497 0 5.278509 0 3.4015749 C 0 3.4015749 0 3.4015749 0 3.4015749 C 0 1.5246402 1.5246402 0 3.4015749 0 C 3.4015749 0 3.4015749 0 3.4015749 0 Z "/>
                                </g>
                                <g transform="translate(154.60446518503045 99.56582871731749)">
                                    <path class="typst-shape" fill="#ffffff" fill-rule="nonzero" stroke="#000000" stroke-width="1" stroke-linecap="butt" stroke-linejoin="miter" stroke-miterlimit="4" d="M 3.4015749 0 C 5.278509 0 6.8031497 1.5246402 6.8031497 3.4015749 C 6.8031497 3.4015749 6.8031497 3.4015749 6.8031497 3.4015749 C 6.8031497 5.278509 5.278509 6.8031497 3.4015749 6.8031497 C 3.4015749 6.8031497 3.4015749 6.8031497 3.4015749 6.8031497 C 1.5246402 6.8031497 0 5.278509 0 3.4015749 C 0 3.4015749 0 3.4015749 0 3.4015749 C 0 1.5246402 1.5246402 0 3.4015749 0 C 3.4015749 0 3.4015749 0 3.4015749 0 Z "/>
                                </g>
                                <g transform="translate(154.60446518503045 63.33063530031462)">
                                    <path class="typst-shape" fill="#ffffff" fill-rule="nonzero" stroke="#000000" stroke-width="1" stroke-linecap="butt" stroke-linejoin="miter" stroke-miterlimit="4" d="M 3.4015749 0 C 5.278509 0 6.8031497 1.5246402 6.8031497 3.4015749 C 6.8031497 3.4015749 6.8031497 3.4015749 6.8031497 3.4015749 C 6.8031497 5.278509 5.278509 6.8031497 3.4015749 6.8031497 C 3.4015749 6.8031497 3.4015749 6.8031497 3.4015749 6.8031497 C 1.5246402 6.8031497 0 5.278509 0 3.4015749 C 0 3.4015749 0 3.4015749 0 3.4015749 C 0 1.5246402 1.5246402 0 3.4015749 0 C 3.4015749 0 3.4015749 0 3.4015749 0 Z "/>
                                </g>
                                <g transform="translate(154.60446518503045 124.17985522345849)">
                                    <path class="typst-shape" fill="#ffffff" fill-rule="nonzero" stroke="#000000" stroke-width="1" stroke-linecap="butt" stroke-linejoin="miter" stroke-miterlimit="4" d="M 3.4015749 0 C 5.278509 0 6.8031497 1.5246402 6.8031497 3.4015749 C 6.8031497 3.4015749 6.8031497 3.4015749 6.8031497 3.4015749 C 6.8031497 5.278509 5.278509 6.8031497 3.4015749 6.8031497 C 3.4015749 6.8031497 3.4015749 6.8031497 3.4015749 6.8031497 C 1.5246402 6.8031497 0 5.278509 0 3.4015749 C 0 3.4015749 0 3.4015749 0 3.4015749 C 0 1.5246402 1.5246402 0 3.4015749 0 C 3.4015749 0 3.4015749 0 3.4015749 0 Z "/>
                                </g>
                                <g transform="translate(10.511444218108448 38.716608794173595)">
                                    <path class="typst-shape" fill="#ffffff" fill-rule="nonzero" stroke="#000000" stroke-width="1" stroke-linecap="butt" stroke-linejoin="miter" stroke-miterlimit="4" d="M 3.4015749 0 C 5.278509 0 6.8031497 1.5246402 6.8031497 3.4015749 C 6.8031497 3.4015749 6.8031497 3.4015749 6.8031497 3.4015749 C 6.8031497 5.278509 5.278509 6.8031497 3.4015749 6.8031497 C 3.4015749 6.8031497 3.4015749 6.8031497 3.4015749 6.8031497 C 1.5246402 6.8031497 0 5.278509 0 3.4015749 C 0 3.4015749 0 3.4015749 0 3.4015749 C 0 1.5246402 1.5246402 0 3.4015749 0 C 3.4015749 0 3.4015749 0 3.4015749 0 Z "/>
                                </g>
                                <g transform="translate(10.511444218108448 99.56582871731749)">
                                    <path class="typst-shape" fill="#ffffff" fill-rule="nonzero" stroke="#000000" stroke-width="1" stroke-linecap="butt" stroke-linejoin="miter" stroke-miterlimit="4" d="M 3.4015749 0 C 5.278509 0 6.8031497 1.5246402 6.8031497 3.4015749 C 6.8031497 3.4015749 6.8031497 3.4015749 6.8031497 3.4015749 C 6.8031497 5.278509 5.278509 6.8031497 3.4015749 6.8031497 C 3.4015749 6.8031497 3.4015749 6.8031497 3.4015749 6.8031497 C 1.5246402 6.8031497 0 5.278509 0 3.4015749 C 0 3.4015749 0 3.4015749 0 3.4015749 C 0 1.5246402 1.5246402 0 3.4015749 0 C 3.4015749 0 3.4015749 0 3.4015749 0 Z "/>
                                </g>
                                <g transform="translate(10.511444218108448 63.33063530031462)">
                                    <path class="typst-shape" fill="#ffffff" fill-rule="nonzero" stroke="#000000" stroke-width="1" stroke-linecap="butt" stroke-linejoin="miter" stroke-miterlimit="4" d="M 3.4015749 0 C 5.278509 0 6.8031497 1.5246402 6.8031497 3.4015749 C 6.8031497 3.4015749 6.8031497 3.4015749 6.8031497 3.4015749 C 6.8031497 5.278509 5.278509 6.8031497 3.4015749 6.8031497 C 3.4015749 6.8031497 3.4015749 6.8031497 3.4015749 6.8031497 C 1.5246402 6.8031497 0 5.278509 0 3.4015749 C 0 3.4015749 0 3.4015749 0 3.4015749 C 0 1.5246402 1.5246402 0 3.4015749 0 C 3.4015749 0 3.4015749 0 3.4015749 0 Z "/>
                                </g>
                                <g transform="translate(10.511444218108448 124.17985522345849)">
                                    <path class="typst-shape" fill="#ffffff" fill-rule="nonzero" stroke="#000000" stroke-width="1" stroke-linecap="butt" stroke-linejoin="miter" stroke-miterlimit="4" d="M 3.4015749 0 C 5.278509 0 6.8031497 1.5246402 6.8031497 3.4015749 C 6.8031497 3.4015749 6.8031497 3.4015749 6.8031497 3.4015749 C 6.8031497 5.278509 5.278509 6.8031497 3.4015749 6.8031497 C 3.4015749 6.8031497 3.4015749 6.8031497 3.4015749 6.8031497 C 1.5246402 6.8031497 0 5.278509 0 3.4015749 C 0 3.4015749 0 3.4015749 0 3.4015749 C 0 1.5246402 1.5246402 0 3.4015749 0 C 3.4015749 0 3.4015749 0 3.4015749 0 Z "/>
                                </g>
                                <g transform="translate(85.95952950471904 6.803149606299219)">
                                    <path class="typst-shape" fill="none" stroke="#000000" stroke-width="1" stroke-linecap="butt" stroke-linejoin="miter" stroke-miterlimit="4" d="M 0 8.409156 C 0 8.409156 0.000000000000015106026 0 0.000000000000015106026 0 "/>
                                </g>
                                <g transform="translate(85.95952950471904 154.48730864314535)">
                                    <path class="typst-shape" fill="none" stroke="#000000" stroke-width="1" stroke-linecap="butt" stroke-linejoin="miter" stroke-miterlimit="4" d="M 0 8.409156 C 0 8.409156 0 0 0 0 "/>
                                </g>
                                <g transform="translate(72.35323029212063 47.92876705275412)">
                                    <path class="typst-shape" fill="none" stroke="#000000" stroke-width="1" stroke-linecap="butt" stroke-linejoin="miter" stroke-miterlimit="4" d="M 0 0 C 0 0 27.212599 0.000000000000015106026 27.212599 0.000000000000015106026 "/>
                                </g>
                                <g transform="translate(72.35323029212063 121.77084657117717)">
                                    <path class="typst-shape" fill="none" stroke="#000000" stroke-width="1" stroke-linecap="butt" stroke-linejoin="miter" stroke-miterlimit="4" d="M 0 0 C 0 0 27.212599 0.000000000000015106026 27.212599 0.000000000000015106026 "/>
                                </g>
                                <g transform="translate(168.51748420628846 73.0390766343293)">
                                    <path class="typst-shape" fill="none" stroke="#000000" stroke-width="1" stroke-linecap="butt" stroke-linejoin="miter" stroke-miterlimit="4" d="M 0 23.62146 C 0 23.62146 0 0 0 0 "/>
                                </g>
                                <g transform="translate(3.4015748031496242 73.0390766343293)">
                                    <path class="typst-shape" fill="none" stroke="#000000" stroke-width="1" stroke-linecap="butt" stroke-linejoin="miter" stroke-miterlimit="4" d="M 0 23.62146 C 0 23.62146 0 0 0 0 "/>
                                </g>
                                <g transform="translate(72.35323029212063 8.102435565827145)">
                                    <path class="typst-shape" fill="none" stroke="#000000" stroke-width="1" stroke-linecap="butt" stroke-linejoin="miter" stroke-miterlimit="4" d="M 0 0 C 0 0 27.212599 0 27.212599 0 "/>
                                </g>
                                <g transform="translate(72.35323029212063 106.5585415903912)">
                                    <path class="typst-shape" fill="none" stroke="#000000" stroke-width="1" stroke-linecap="butt" stroke-linejoin="miter" stroke-miterlimit="4" d="M 0 0 C 0 0 27.212599 0.000000000000030212052 27.212599 0.000000000000030212052 "/>
                                </g>
                                <g transform="translate(72.35323029212063 63.141072033540105)">
                                    <path class="typst-shape" fill="none" stroke="#000000" stroke-width="1" stroke-linecap="butt" stroke-linejoin="miter" stroke-miterlimit="4" d="M 0 0 C 0 0 27.212599 0 27.212599 0 "/>
                                </g>
                                <g transform="translate(72.35323029212063 161.59717805810416)">
                                    <path class="typst-shape" fill="none" stroke="#000000" stroke-width="1" stroke-linecap="butt" stroke-linejoin="miter" stroke-miterlimit="4" d="M 0 0 C 0 0 27.212599 0 27.212599 0 "/>
                                </g>
                                <g transform="translate(147.49459577007158 48.42505012818828)">
                                    <path class="typst-shape" fill="none" stroke="#000000" stroke-width="1" stroke-linecap="butt" stroke-linejoin="miter" stroke-miterlimit="4" d="M 0.000000000000030212052 23.62146 C 0.000000000000030212052 23.62146 0 0 0 0 "/>
                                </g>
                                <g transform="translate(147.49459577007158 97.65310314047031)">
                                    <path class="typst-shape" fill="none" stroke="#000000" stroke-width="1" stroke-linecap="butt" stroke-linejoin="miter" stroke-miterlimit="4" d="M 0 23.62146 C 0 23.62146 0 0 0 0 "/>
                                </g>
                                <g transform="translate(24.4244632393665 48.42505012818828)">
                                    <path class="typst-shape" fill="none" stroke="#000000" stroke-width="1" stroke-linecap="butt" stroke-linejoin="miter" stroke-miterlimit="4" d="M 0 23.62146 C 0 23.62146 0.000000000000007553013 0 0.000000000000007553013 0 "/>
                                </g>
                                <g transform="translate(24.424463239366514 97.65310314047031)">
                                    <path class="typst-shape" fill="none" stroke="#000000" stroke-width="1" stroke-linecap="butt" stroke-linejoin="miter" stroke-miterlimit="4" d="M 0.000000000000007553013 23.62146 C 0.000000000000007553013 23.62146 0 0 0 0 "/>
                                </g>
                                <g transform="translate(140.998165972432 25.606592657009323)">
                                    <path class="typst-shape" fill="none" stroke="#000000" stroke-width="1" stroke-linecap="butt" stroke-linejoin="miter" stroke-miterlimit="4" d="M 0 8.409156 C 0 8.409156 0 0 0 0 "/>
                                </g>
                                <g transform="translate(140.998165972432 135.68386559243527)">
                                    <path class="typst-shape" fill="none" stroke="#000000" stroke-width="1" stroke-linecap="butt" stroke-linejoin="miter" stroke-miterlimit="4" d="M 0 8.409156 C 0 8.409156 0 0 0 0 "/>
                                </g>
                                <g transform="translate(30.92089303700609 25.606592657009323)">
                                    <path class="typst-shape" fill="none" stroke="#000000" stroke-width="1" stroke-linecap="butt" stroke-linejoin="miter" stroke-miterlimit="4" d="M 0 8.409156 C 0 8.409156 0.000000000000015106026 0 0.000000000000015106026 0 "/>
                                </g>
                                <g transform="translate(30.92089303700609 135.68386559243527)">
                                    <path class="typst-shape" fill="none" stroke="#000000" stroke-width="1" stroke-linecap="butt" stroke-linejoin="miter" stroke-miterlimit="4" d="M 0 8.409156 C 0 8.409156 0.000000000000015106026 0 0.000000000000015106026 0 "/>
                                </g>
                                <g transform="translate(89.35398961339442 3.623055125073167)">
                                    <path class="typst-shape" fill="none" stroke="#000000" stroke-width="1" stroke-linecap="butt" stroke-linejoin="miter" stroke-miterlimit="4" d="M 20.730398 1.3526084 C 20.730398 1.3526084 0 0 0 0 "/>
                                </g>
                                <g transform="translate(106.24661589006065 6.103495845801526)">
                                    <path class="typst-shape" fill="none" stroke="#000000" stroke-width="1" stroke-linecap="butt" stroke-linejoin="miter" stroke-miterlimit="4" d="M 3.9530194 0 C 3.9530194 0 0 1.0925877 0 1.0925877 "/>
                                </g>
                                <g transform="translate(116.37216793545875 6.985314060122047)">
                                    <path class="typst-shape" fill="none" stroke="#000000" stroke-width="1" stroke-linecap="butt" stroke-linejoin="miter" stroke-miterlimit="4" d="M 0 0 C 0 0 21.732677 13.431534 21.732677 13.431534 "/>
                                </g>
                                <g transform="translate(88.85284970160225 135.86603004625806)">
                                    <path class="typst-shape" fill="none" stroke="#000000" stroke-width="1" stroke-linecap="butt" stroke-linejoin="miter" stroke-miterlimit="4" d="M 21.732677 0 C 21.732677 0 0 13.431534 0 13.431534 "/>
                                </g>
                                <g transform="translate(104.18133153678107 109.73664639699697)">
                                    <path class="typst-shape" fill="none" stroke="#000000" stroke-width="1" stroke-linecap="butt" stroke-linejoin="miter" stroke-miterlimit="4" d="M 8.083589 21.163109 C 8.083589 21.163109 0 0 0 0 "/>
                                </g>
                                <g transform="translate(116.87330784725089 132.5037711112092)">
                                    <path class="typst-shape" fill="none" stroke="#000000" stroke-width="1" stroke-linecap="butt" stroke-linejoin="miter" stroke-miterlimit="4" d="M 0 1.3526084 C 0 1.3526084 20.730398 0 20.730398 0 "/>
                                </g>
                                <g transform="translate(88.85284970160225 20.402050005945966)">
                                    <path class="typst-shape" fill="none" stroke="#000000" stroke-width="1" stroke-linecap="butt" stroke-linejoin="miter" stroke-miterlimit="4" d="M 21.732677 13.431534 C 21.732677 13.431534 0 0 0 0 "/>
                                </g>
                                <g transform="translate(104.18133153678107 38.79985860628938)">
                                    <path class="typst-shape" fill="none" stroke="#000000" stroke-width="1" stroke-linecap="butt" stroke-linejoin="miter" stroke-miterlimit="4" d="M 8.083589 0 C 8.083589 0 0 21.163109 0 21.163109 "/>
                                </g>
                                <g transform="translate(116.87330784725089 35.84323412160716)">
                                    <path class="typst-shape" fill="none" stroke="#000000" stroke-width="1" stroke-linecap="butt" stroke-linejoin="miter" stroke-miterlimit="4" d="M 0 0 C 0 0 20.730398 1.3526084 20.730398 1.3526084 "/>
                                </g>
                                <g transform="translate(89.35398961339442 164.7239501077432)">
                                    <path class="typst-shape" fill="none" stroke="#000000" stroke-width="1" stroke-linecap="butt" stroke-linejoin="miter" stroke-miterlimit="4" d="M 20.730398 0 C 20.730398 0 0 1.3526084 0 1.3526084 "/>
                                </g>
                                <g transform="translate(106.24661589006065 162.50353006579402)">
                                    <path class="typst-shape" fill="none" stroke="#000000" stroke-width="1" stroke-linecap="butt" stroke-linejoin="miter" stroke-miterlimit="4" d="M 3.9530194 1.0925877 C 3.9530194 1.0925877 0 0 0 0 "/>
                                </g>
                                <g transform="translate(116.37216793545875 149.28276599208198)">
                                    <path class="typst-shape" fill="none" stroke="#000000" stroke-width="1" stroke-linecap="butt" stroke-linejoin="miter" stroke-miterlimit="4" d="M 0 13.431534 C 0 13.431534 21.732677 0 21.732677 0 "/>
                                </g>
                                <g transform="translate(61.83467137953792 3.6230551250731517)">
                                    <path class="typst-shape" fill="none" stroke="#000000" stroke-width="1" stroke-linecap="butt" stroke-linejoin="miter" stroke-miterlimit="4" d="M 0 1.3526084 C 0 1.3526084 20.730398 0 20.730398 0 "/>
                                </g>
                                <g transform="translate(61.719423640456135 6.103495845801511)">
                                    <path class="typst-shape" fill="none" stroke="#000000" stroke-width="1" stroke-linecap="butt" stroke-linejoin="miter" stroke-miterlimit="4" d="M 0 0 C 0 0 3.9530194 1.0925877 3.9530194 1.0925877 "/>
                                </g>
                                <g transform="translate(33.8142132338893 6.985314060122032)">
                                    <path class="typst-shape" fill="none" stroke="#000000" stroke-width="1" stroke-linecap="butt" stroke-linejoin="miter" stroke-miterlimit="4" d="M 21.732677 0 C 21.732677 0 0 13.431534 0 13.431534 "/>
                                </g>
                                <g transform="translate(61.333531467745786 135.86603004625806)">
                                    <path class="typst-shape" fill="none" stroke="#000000" stroke-width="1" stroke-linecap="butt" stroke-linejoin="miter" stroke-miterlimit="4" d="M 0 0 C 0 0 21.732677 13.431534 21.732677 13.431534 "/>
                                </g>
                                <g transform="translate(59.654139287176555 109.73664639699697)">
                                    <path class="typst-shape" fill="none" stroke="#000000" stroke-width="1" stroke-linecap="butt" stroke-linejoin="miter" stroke-miterlimit="4" d="M 0 21.163109 C 0 21.163109 8.083589 0 8.083589 0 "/>
                                </g>
                                <g transform="translate(34.31535314568145 132.5037711112092)">
                                    <path class="typst-shape" fill="none" stroke="#000000" stroke-width="1" stroke-linecap="butt" stroke-linejoin="miter" stroke-miterlimit="4" d="M 20.730398 1.3526084 C 20.730398 1.3526084 0 0 0 0 "/>
                                </g>
                                <g transform="translate(61.333531467745786 20.40205000594596)">
                                    <path class="typst-shape" fill="none" stroke="#000000" stroke-width="1" stroke-linecap="butt" stroke-linejoin="miter" stroke-miterlimit="4" d="M 0 13.431534 C 0 13.431534 21.732677 0 21.732677 0 "/>
                                </g>
                                <g transform="translate(59.654139287176555 38.79985860628938)">
                                    <path class="typst-shape" fill="none" stroke="#000000" stroke-width="1" stroke-linecap="butt" stroke-linejoin="miter" stroke-miterlimit="4" d="M 0 0 C 0 0 8.083589 21.163109 8.083589 21.163109 "/>
                                </g>
                                <g transform="translate(34.31535314568144 35.84323412160719)">
                                    <path class="typst-shape" fill="none" stroke="#000000" stroke-width="1" stroke-linecap="butt" stroke-linejoin="miter" stroke-miterlimit="4" d="M 20.730398 0 C 20.730398 0 0 1.3526084 0 1.3526084 "/>
                                </g>
                                <g transform="translate(61.83467137953792 164.72395010774318)">
                                    <path class="typst-shape" fill="none" stroke="#000000" stroke-width="1" stroke-linecap="butt" stroke-linejoin="miter" stroke-miterlimit="4" d="M 0 0 C 0 0 20.730398 1.3526084 20.730398 1.3526084 "/>
                                </g>
                                <g transform="translate(61.719423640456135 162.50353006579402)">
                                    <path class="typst-shape" fill="none" stroke="#000000" stroke-width="1" stroke-linecap="butt" stroke-linejoin="miter" stroke-miterlimit="4" d="M 0 1.0925877 C 0 1.0925877 3.9530194 0 3.9530194 0 "/>
                                </g>
                                <g transform="translate(33.814213233889305 149.28276599208195)">
                                    <path class="typst-shape" fill="none" stroke="#000000" stroke-width="1" stroke-linecap="butt" stroke-linejoin="miter" stroke-miterlimit="4" d="M 21.732677 13.431534 C 21.732677 13.431534 0 0 0 0 "/>
                                </g>
                                <g transform="translate(105.1760489287932 30.601528394816672)">
                                    <path class="typst-shape" fill="none" stroke="#000000" stroke-width="1" stroke-linecap="butt" stroke-linejoin="miter" stroke-miterlimit="4" d="M 12.590583 0 C 12.590583 0 0 14.741312 0 14.741312 "/>
                                </g>
                                <g transform="translate(105.1760489287932 10.688362651353199)">
                                    <path class="typst-shape" fill="none" stroke="#000000" stroke-width="1" stroke-linecap="butt" stroke-linejoin="miter" stroke-miterlimit="4" d="M 12.590583 14.741312 C 12.590583 14.741312 0 0 0 0 "/>
                                </g>
                                <g transform="translate(122.86859773309833 29.803771531300995)">
                                    <path class="typst-shape" fill="none" stroke="#000000" stroke-width="1" stroke-linecap="butt" stroke-linejoin="miter" stroke-miterlimit="4" d="M 0 0 C 0 0 21.732677 13.431534 21.732677 13.431534 "/>
                                </g>
                                <g transform="translate(104.67435581167838 50.87088162532082)">
                                    <path class="typst-shape" fill="none" stroke="#000000" stroke-width="1" stroke-linecap="butt" stroke-linejoin="miter" stroke-miterlimit="4" d="M 13.593969 23.430658 C 13.593969 23.430658 0 0 0 0 "/>
                                </g>
                                <g transform="translate(104.67435581167837 80.18576889413937)">
                                    <path class="typst-shape" fill="none" stroke="#000000" stroke-width="1" stroke-linecap="butt" stroke-linejoin="miter" stroke-miterlimit="4" d="M 13.593969 0 C 13.593969 0 0 23.430658 0 23.430658 "/>
                                </g>
                                <g transform="translate(123.36973764489048 75.66956560853417)">
                                    <path class="typst-shape" fill="none" stroke="#000000" stroke-width="1" stroke-linecap="butt" stroke-linejoin="miter" stroke-miterlimit="4" d="M 0 1.3526084 C 0 1.3526084 20.730398 0 20.730398 0 "/>
                                </g>
                                <g transform="translate(104.67435581167837 95.39807387492534)">
                                    <path class="typst-shape" fill="none" stroke="#000000" stroke-width="1" stroke-linecap="butt" stroke-linejoin="miter" stroke-miterlimit="4" d="M 13.593969 0 C 13.593969 0 0 23.430658 0 23.430658 "/>
                                </g>
                                <g transform="translate(104.67435581167837 66.08318660610679)">
                                    <path class="typst-shape" fill="none" stroke="#000000" stroke-width="1" stroke-linecap="butt" stroke-linejoin="miter" stroke-miterlimit="4" d="M 13.593969 23.430658 C 13.593969 23.430658 0 0 0 0 "/>
                                </g>
                                <g transform="translate(123.36973764489048 92.6774396242822)">
                                    <path class="typst-shape" fill="none" stroke="#000000" stroke-width="1" stroke-linecap="butt" stroke-linejoin="miter" stroke-miterlimit="4" d="M 0 0 C 0 0 20.730398 1.3526084 20.730398 1.3526084 "/>
                                </g>
                                <g transform="translate(105.1760489287932 124.35677365670323)">
                                    <path class="typst-shape" fill="none" stroke="#000000" stroke-width="1" stroke-linecap="butt" stroke-linejoin="miter" stroke-miterlimit="4" d="M 12.590583 14.741312 C 12.590583 14.741312 0 0 0 0 "/>
                                </g>
                                <g transform="translate(105.1760489287932 144.26993940016675)">
                                    <path class="typst-shape" fill="none" stroke="#000000" stroke-width="1" stroke-linecap="butt" stroke-linejoin="miter" stroke-miterlimit="4" d="M 12.590583 0 C 12.590583 0 0 14.741312 0 14.741312 "/>
                                </g>
                                <g transform="translate(122.86859773309833 126.464308520903)">
                                    <path class="typst-shape" fill="none" stroke="#000000" stroke-width="1" stroke-linecap="butt" stroke-linejoin="miter" stroke-miterlimit="4" d="M 0 13.431534 C 0 13.431534 21.732677 0 21.732677 0 "/>
                                </g>
                                <g transform="translate(54.1524268815491 30.601528394816665)">
                                    <path class="typst-shape" fill="none" stroke="#000000" stroke-width="1" stroke-linecap="butt" stroke-linejoin="miter" stroke-miterlimit="4" d="M 0 0 C 0 0 12.590583 14.741312 12.590583 14.741312 "/>
                                </g>
                                <g transform="translate(54.15242688154909 10.688362651353183)">
                                    <path class="typst-shape" fill="none" stroke="#000000" stroke-width="1" stroke-linecap="butt" stroke-linejoin="miter" stroke-miterlimit="4" d="M 0 14.741312 C 0 14.741312 12.590583 0 12.590583 0 "/>
                                </g>
                                <g transform="translate(27.317783436249723 29.80377153130101)">
                                    <path class="typst-shape" fill="none" stroke="#000000" stroke-width="1" stroke-linecap="butt" stroke-linejoin="miter" stroke-miterlimit="4" d="M 21.732677 0 C 21.732677 0 0 13.431534 0 13.431534 "/>
                                </g>
                                <g transform="translate(53.65073376443428 50.87088162532082)">
                                    <path class="typst-shape" fill="none" stroke="#000000" stroke-width="1" stroke-linecap="butt" stroke-linejoin="miter" stroke-miterlimit="4" d="M 0 23.430658 C 0 23.430658 13.593969 0 13.593969 0 "/>
                                </g>
                                <g transform="translate(53.650733764434285 80.18576889413937)">
                                    <path class="typst-shape" fill="none" stroke="#000000" stroke-width="1" stroke-linecap="butt" stroke-linejoin="miter" stroke-miterlimit="4" d="M 0 0 C 0 0 13.593969 23.430658 13.593969 23.430658 "/>
                                </g>
                                <g transform="translate(27.818923348041867 75.66956560853417)">
                                    <path class="typst-shape" fill="none" stroke="#000000" stroke-width="1" stroke-linecap="butt" stroke-linejoin="miter" stroke-miterlimit="4" d="M 20.730398 1.3526084 C 20.730398 1.3526084 0 0 0 0 "/>
                                </g>
                                <g transform="translate(53.65073376443428 95.39807387492533)">
                                    <path class="typst-shape" fill="none" stroke="#000000" stroke-width="1" stroke-linecap="butt" stroke-linejoin="miter" stroke-miterlimit="4" d="M 0 0 C 0 0 13.593969 23.430658 13.593969 23.430658 "/>
                                </g>
                                <g transform="translate(53.65073376443428 66.08318660610679)">
                                    <path class="typst-shape" fill="none" stroke="#000000" stroke-width="1" stroke-linecap="butt" stroke-linejoin="miter" stroke-miterlimit="4" d="M 0 23.430658 C 0 23.430658 13.593969 0 13.593969 0 "/>
                                </g>
                                <g transform="translate(27.818923348041874 92.6774396242822)">
                                    <path class="typst-shape" fill="none" stroke="#000000" stroke-width="1" stroke-linecap="butt" stroke-linejoin="miter" stroke-miterlimit="4" d="M 20.730398 0 C 20.730398 0 0 1.3526084 0 1.3526084 "/>
                                </g>
                                <g transform="translate(54.1524268815491 124.35677365670323)">
                                    <path class="typst-shape" fill="none" stroke="#000000" stroke-width="1" stroke-linecap="butt" stroke-linejoin="miter" stroke-miterlimit="4" d="M 0 14.741312 C 0 14.741312 12.590583 0 12.590583 0 "/>
                                </g>
                                <g transform="translate(54.1524268815491 144.26993940016672)">
                                    <path class="typst-shape" fill="none" stroke="#000000" stroke-width="1" stroke-linecap="butt" stroke-linejoin="miter" stroke-miterlimit="4" d="M 0 0 C 0 0 12.590583 14.741312 12.590583 14.741312 "/>
                                </g>
                                <g transform="translate(27.31778343624973 126.46430852090299)">
                                    <path class="typst-shape" fill="none" stroke="#000000" stroke-width="1" stroke-linecap="butt" stroke-linejoin="miter" stroke-miterlimit="4" d="M 21.732677 13.431534 C 21.732677 13.431534 0 0 0 0 "/>
                                </g>
                                <g transform="translate(159.21996800449404 45.296288403928976)">
                                    <path class="typst-shape" fill="none" stroke="#000000" stroke-width="1" stroke-linecap="butt" stroke-linejoin="miter" stroke-miterlimit="4" d="M 0 0 C 0 0 8.083589 21.163109 8.083589 21.163109 "/>
                                </g>
                                <g transform="translate(150.77380813966516 43.02453560501305)">
                                    <path class="typst-shape" fill="none" stroke="#000000" stroke-width="1" stroke-linecap="butt" stroke-linejoin="miter" stroke-miterlimit="4" d="M 3.9530194 0 C 3.9530194 0 0 1.0925877 0 1.0925877 "/>
                                </g>
                                <g transform="translate(143.20681138075815 24.790944939385742)">
                                    <path class="typst-shape" fill="none" stroke="#000000" stroke-width="1" stroke-linecap="butt" stroke-linejoin="miter" stroke-miterlimit="4" d="M 12.590583 14.741312 C 12.590583 14.741312 0 0 0 0 "/>
                                </g>
                                <g transform="translate(161.2852523577736 100.96846380044148)">
                                    <path class="typst-shape" fill="none" stroke="#000000" stroke-width="1" stroke-linecap="butt" stroke-linejoin="miter" stroke-miterlimit="4" d="M 0 1.0925877 C 0 1.0925877 3.9530194 0 3.9530194 0 "/>
                                </g>
                                <g transform="translate(148.7085237863856 78.62619009321638)">
                                    <path class="typst-shape" fill="none" stroke="#000000" stroke-width="1" stroke-linecap="butt" stroke-linejoin="miter" stroke-miterlimit="4" d="M 8.083589 21.163109 C 8.083589 21.163109 0 0 0 0 "/>
                                </g>
                                <g transform="translate(142.7051182636433 105.90951809303378)">
                                    <path class="typst-shape" fill="none" stroke="#000000" stroke-width="1" stroke-linecap="butt" stroke-linejoin="miter" stroke-miterlimit="4" d="M 13.593969 0 C 13.593969 0 0 23.430658 0 23.430658 "/>
                                </g>
                                <g transform="translate(161.2852523577736 67.63856211115407)">
                                    <path class="typst-shape" fill="none" stroke="#000000" stroke-width="1" stroke-linecap="butt" stroke-linejoin="miter" stroke-miterlimit="4" d="M 0 0 C 0 0 3.9530194 1.0925877 3.9530194 1.0925877 "/>
                                </g>
                                <g transform="translate(148.7085237863856 69.91031491006999)">
                                    <path class="typst-shape" fill="none" stroke="#000000" stroke-width="1" stroke-linecap="butt" stroke-linejoin="miter" stroke-miterlimit="4" d="M 8.083589 0 C 8.083589 0 0 21.163109 0 21.163109 "/>
                                </g>
                                <g transform="translate(142.70511826364333 40.359437407212376)">
                                    <path class="typst-shape" fill="none" stroke="#000000" stroke-width="1" stroke-linecap="butt" stroke-linejoin="miter" stroke-miterlimit="4" d="M 13.593969 23.430658 C 13.593969 23.430658 0 0 0 0 "/>
                                </g>
                                <g transform="translate(159.21996800449404 103.24021659935738)">
                                    <path class="typst-shape" fill="none" stroke="#000000" stroke-width="1" stroke-linecap="butt" stroke-linejoin="miter" stroke-miterlimit="4" d="M 0 21.163109 C 0 21.163109 8.083589 0 8.083589 0 "/>
                                </g>
                                <g transform="translate(150.77380813966516 125.5824903065825)">
                                    <path class="typst-shape" fill="none" stroke="#000000" stroke-width="1" stroke-linecap="butt" stroke-linejoin="miter" stroke-miterlimit="4" d="M 3.9530194 1.0925877 C 3.9530194 1.0925877 0 0 0 0 "/>
                                </g>
                                <g transform="translate(143.20681138075815 130.16735711213414)">
                                    <path class="typst-shape" fill="none" stroke="#000000" stroke-width="1" stroke-linecap="butt" stroke-linejoin="miter" stroke-miterlimit="4" d="M 12.590583 0 C 12.590583 0 0 14.741312 0 14.741312 "/>
                                </g>
                                <g transform="translate(4.61550281946361 45.296288403928976)">
                                    <path class="typst-shape" fill="none" stroke="#000000" stroke-width="1" stroke-linecap="butt" stroke-linejoin="miter" stroke-miterlimit="4" d="M 8.083589 0 C 8.083589 0 0 21.163109 0 21.163109 "/>
                                </g>
                                <g transform="translate(17.192231390851628 43.02453560501305)">
                                    <path class="typst-shape" fill="none" stroke="#000000" stroke-width="1" stroke-linecap="butt" stroke-linejoin="miter" stroke-miterlimit="4" d="M 0 0 C 0 0 3.9530194 1.0925877 3.9530194 1.0925877 "/>
                                </g>
                                <g transform="translate(16.12166442958416 24.790944939385742)">
                                    <path class="typst-shape" fill="none" stroke="#000000" stroke-width="1" stroke-linecap="butt" stroke-linejoin="miter" stroke-miterlimit="4" d="M 0 14.741312 C 0 14.741312 12.590583 0 12.590583 0 "/>
                                </g>
                                <g transform="translate(6.680787172743195 100.96846380044147)">
                                    <path class="typst-shape" fill="none" stroke="#000000" stroke-width="1" stroke-linecap="butt" stroke-linejoin="miter" stroke-miterlimit="4" d="M 3.9530194 1.0925877 C 3.9530194 1.0925877 0 0 0 0 "/>
                                </g>
                                <g transform="translate(15.126947037572045 78.62619009321638)">
                                    <path class="typst-shape" fill="none" stroke="#000000" stroke-width="1" stroke-linecap="butt" stroke-linejoin="miter" stroke-miterlimit="4" d="M 0 21.163109 C 0 21.163109 8.083589 0 8.083589 0 "/>
                                </g>
                                <g transform="translate(15.619971312469335 105.9095180930338)">
                                    <path class="typst-shape" fill="none" stroke="#000000" stroke-width="1" stroke-linecap="butt" stroke-linejoin="miter" stroke-miterlimit="4" d="M 0 0 C 0 0 13.593969 23.430658 13.593969 23.430658 "/>
                                </g>
                                <g transform="translate(6.68078717274318 67.63856211115409)">
                                    <path class="typst-shape" fill="none" stroke="#000000" stroke-width="1" stroke-linecap="butt" stroke-linejoin="miter" stroke-miterlimit="4" d="M 3.9530194 0 C 3.9530194 0 0 1.0925877 0 1.0925877 "/>
                                </g>
                                <g transform="translate(15.126947037572045 69.91031491006999)">
                                    <path class="typst-shape" fill="none" stroke="#000000" stroke-width="1" stroke-linecap="butt" stroke-linejoin="miter" stroke-miterlimit="4" d="M 0 0 C 0 0 8.083589 21.163109 8.083589 21.163109 "/>
                                </g>
                                <g transform="translate(15.619971312469366 40.35943740721239)">
                                    <path class="typst-shape" fill="none" stroke="#000000" stroke-width="1" stroke-linecap="butt" stroke-linejoin="miter" stroke-miterlimit="4" d="M 0 23.430658 C 0 23.430658 13.593969 0 13.593969 0 "/>
                                </g>
                                <g transform="translate(4.61550281946361 103.2402165993574)">
                                    <path class="typst-shape" fill="none" stroke="#000000" stroke-width="1" stroke-linecap="butt" stroke-linejoin="miter" stroke-miterlimit="4" d="M 8.083589 21.163109 C 8.083589 21.163109 0 0 0 0 "/>
                                </g>
                                <g transform="translate(17.192231390851628 125.5824903065825)">
                                    <path class="typst-shape" fill="none" stroke="#000000" stroke-width="1" stroke-linecap="butt" stroke-linejoin="miter" stroke-miterlimit="4" d="M 0 1.0925877 C 0 1.0925877 3.9530194 0 3.9530194 0 "/>
                                </g>
                                <g transform="translate(16.12166442958418 130.16735711213414)">
                                    <path class="typst-shape" fill="none" stroke="#000000" stroke-width="1" stroke-linecap="butt" stroke-linejoin="miter" stroke-miterlimit="4" d="M 0 0 C 0 0 12.590583 14.741312 12.590583 14.741312 "/>
                                </g>
                            </g>
                        </g>
                    </g>
                </g>
            </g>
        </g>
    </g>
</svg>
